<svg xmlns="http://www.w3.org/2000/svg" viewBox="0 0 120 148" width="120" height="148"><defs>
      <linearGradient id="g" x1="0" y1="0" x2="0" y2="1"><stop offset="0%" stop-color="#63E3D2"></stop><stop offset="100%" stop-color="#00C2A8"></stop></linearGradient>
      <radialGradient id="gl" cx="50%" cy="26%" r="58%"><stop offset="0%" stop-color="#fff" stop-opacity="0.5"></stop><stop offset="65%" stop-color="#fff" stop-opacity="0.06"></stop><stop offset="100%" stop-color="#fff" stop-opacity="0"></stop></radialGradient>
    </defs><path d="M60 10 C78 10 96 15 106 20 L106 66 C106 98 86 122 60 132 C34 122 14 98 14 66 L14 20 C24 15 42 10 60 10 Z" fill="url(#g)" stroke="none" stroke-width="0" stroke-linejoin="round"></path><path d="M60 10 C78 10 96 15 106 20 L106 66 C106 98 86 122 60 132 C34 122 14 98 14 66 L14 20 C24 15 42 10 60 10 Z" fill="url(#gl)"></path><circle cx="48" cy="61" r="5.760000000000001" fill="#0F1F3D"></circle><circle cx="76" cy="61" r="5.760000000000001" fill="#0F1F3D"></circle><circle cx="49.6" cy="59" r="1.92" fill="#FFFFFF"></circle><circle cx="77.6" cy="59" r="1.92" fill="#FFFFFF"></circle><path d="M52 88 Q60 92 68 87" fill="none" stroke="#0F1F3D" stroke-width="3.57" stroke-linecap="round"></path><circle cx="95" cy="19" r="3" fill="#00C2A8" stroke="#0F1F3D" stroke-width="1.5"></circle><circle cx="104" cy="12" r="4" fill="#00C2A8" stroke="#0F1F3D" stroke-width="1.5"></circle><circle cx="113" cy="5" r="5" fill="#00C2A8" stroke="#0F1F3D" stroke-width="1.5"></circle></svg>