<svg xmlns="http://www.w3.org/2000/svg" viewBox="0 0 120 148" width="120" height="148"><defs>
      <linearGradient id="g" x1="0" y1="0" x2="0" y2="1"><stop offset="0%" stop-color="#63E3D2"></stop><stop offset="100%" stop-color="#00C2A8"></stop></linearGradient>
      <radialGradient id="gl" cx="50%" cy="26%" r="58%"><stop offset="0%" stop-color="#fff" stop-opacity="0.5"></stop><stop offset="65%" stop-color="#fff" stop-opacity="0.06"></stop><stop offset="100%" stop-color="#fff" stop-opacity="0"></stop></radialGradient>
    </defs><path d="M60 10 C78 10 96 15 106 20 L106 66 C106 98 86 122 60 132 C34 122 14 98 14 66 L14 20 C24 15 42 10 60 10 Z" fill="url(#g)" stroke="none" stroke-width="0" stroke-linejoin="round"></path><path d="M60 10 C78 10 96 15 106 20 L106 66 C106 98 86 122 60 132 C34 122 14 98 14 66 L14 20 C24 15 42 10 60 10 Z" fill="url(#gl)"></path><path d="M39 52 L52 56" fill="none" stroke="#0F1F3D" stroke-width="3.9899999999999998" stroke-linecap="round"></path><path d="M81 52 L68 56" fill="none" stroke="#0F1F3D" stroke-width="3.9899999999999998" stroke-linecap="round"></path><circle cx="46" cy="66" r="6.8" fill="#0F1F3D"></circle><circle cx="74" cy="66" r="6.8" fill="#0F1F3D"></circle><circle cx="43.6" cy="63.5" r="2.04" fill="#FFFFFF"></circle><circle cx="71.6" cy="63.5" r="2.04" fill="#FFFFFF"></circle><ellipse cx="60" cy="90" rx="4.8" ry="5.8" fill="#0F1F3D"></ellipse><circle cx="100" cy="18" r="15" fill="#E24B4A" stroke="#FFFFFF" stroke-width="3"></circle><rect x="97.4" y="10" width="5.2" height="9.4" rx="2.6" fill="#FFFFFF"></rect><circle cx="100" cy="24.6" r="2.6" fill="#FFFFFF"></circle></svg>