<svg xmlns="http://www.w3.org/2000/svg" width="792" height="140" viewBox="0 0 792 140"><defs></defs><g transform="translate(6,5.841999999999999) scale(0.867)"><path d="M60 10 C78 10 96 15 106 20 L106 66 C106 98 86 122 60 132 C34 122 14 98 14 66 L14 20 C24 15 42 10 60 10 Z" fill="#00C2A8" stroke="#0F1F3D" stroke-width="2.4" stroke-linejoin="round"></path><circle cx="46" cy="64" r="6.4" fill="#0F1F3D"></circle><circle cx="74" cy="64" r="6.4" fill="#0F1F3D"></circle><circle cx="43.6" cy="61.4" r="2.11" fill="#fff"></circle><circle cx="71.6" cy="61.4" r="2.11" fill="#fff"></circle><path d="M47 82 Q60 97 73 82" fill="none" stroke="#0F1F3D" stroke-width="4.2" stroke-linecap="round"></path><path d="M52.5 106 l4.8 5.2 l10.5 -12.5" fill="none" stroke="#0F1F3D" stroke-width="3.6" stroke-linecap="round" stroke-linejoin="round" opacity="0.85"></path></g><text x="134.04" y="94" font-size="76" letter-spacing="-1.5" fill="#0F1F3D">Warranty<tspan fill="#00A491">Buddy</tspan></text></svg>